/* XPM */
static char * pyrenamer_xpm[] = {
"32 32 156 2",
"  	c None",
". 	c #DFDFDF",
"+ 	c #E7E7E7",
"@ 	c #D3D3D3",
"# 	c #C3C3C3",
"$ 	c #ABABAB",
"% 	c #C1C1C1",
"& 	c #D1D1D1",
"* 	c #E0E0E0",
"= 	c #C2C2C2",
"- 	c #DBDBDB",
"; 	c #9D9D9D",
"> 	c #EFEFEF",
", 	c #E6E6E6",
"' 	c #E9E9E9",
") 	c #D2D2D2",
"! 	c #A8A8A8",
"~ 	c #C0C0C0",
"{ 	c #EEEEEE",
"] 	c #EAEAEA",
"^ 	c #E4E4E4",
"/ 	c #E1E1E1",
"( 	c #C7C7C7",
"_ 	c #EDEDED",
": 	c #D0D0D0",
"< 	c #BABABA",
"[ 	c #BCBCBC",
"} 	c #CFCFCF",
"| 	c #ECECEC",
"1 	c #E8E8E8",
"2 	c #E2E2E2",
"3 	c #E3E3E3",
"4 	c #E5E5E5",
"5 	c #DDDDDD",
"6 	c #CCCCCC",
"7 	c #A1A1A1",
"8 	c #919191",
"9 	c #B8B8B8",
"0 	c #C8C8C8",
"a 	c #AEAEAE",
"b 	c #DCDCDC",
"c 	c #D8D8D8",
"d 	c #BDBDBD",
"e 	c #F1F1F1",
"f 	c #BBBBBB",
"g 	c #B9B9B9",
"h 	c #9C9C9C",
"i 	c #CBCBCB",
"j 	c #C6C6C6",
"k 	c #EBEBEB",
"l 	c #858585",
"m 	c #A0A0A0",
"n 	c #B0B0B0",
"o 	c #888888",
"p 	c #2E2E2E",
"q 	c #6C6C6C",
"r 	c #0A0A0A",
"s 	c #0B0B0B",
"t 	c #111111",
"u 	c #515151",
"v 	c #D5D5D5",
"w 	c #B1B1B1",
"x 	c #A5A5A5",
"y 	c #909090",
"z 	c #363636",
"A 	c #101010",
"B 	c #2B2B2B",
"C 	c #D6D6D6",
"D 	c #313131",
"E 	c #5C5C5C",
"F 	c #5E5E5E",
"G 	c #030303",
"H 	c #A6A6A6",
"I 	c #A9A9A9",
"J 	c #1A1A1A",
"K 	c #8E8E8E",
"L 	c #6D6D6D",
"M 	c #C4C4C4",
"N 	c #F2F2F2",
"O 	c #989898",
"P 	c #3D3D3D",
"Q 	c #474747",
"R 	c #AFAFAF",
"S 	c #CACACA",
"T 	c #B6B6B6",
"U 	c #000000",
"V 	c #B2B2B2",
"W 	c #F0F0F0",
"X 	c #272727",
"Y 	c #606060",
"Z 	c #B7B7B7",
"` 	c #666666",
" .	c #6E6E6E",
"..	c #090909",
"+.	c #181818",
"@.	c #464646",
"#.	c #2A2A2A",
"$.	c #1B1B1B",
"%.	c #CDCDCD",
"&.	c #DADADA",
"*.	c #9A9A9A",
"=.	c #DEDEDE",
"-.	c #323232",
";.	c #676767",
">.	c #929292",
",.	c #141414",
"'.	c #707070",
").	c #717171",
"!.	c #F3F3F3",
"~.	c #797979",
"{.	c #2D2D2D",
"].	c #C9C9C9",
"^.	c #767676",
"/.	c #191919",
"(.	c #545454",
"_.	c #9E9E9E",
":.	c #ACACAC",
"<.	c #D7D7D7",
"[.	c #F4F4F4",
"}.	c #878787",
"|.	c #040404",
"1.	c #B5B5B5",
"2.	c #5A5A5A",
"3.	c #060606",
"4.	c #828282",
"5.	c #242424",
"6.	c #383838",
"7.	c #979797",
"8.	c #616161",
"9.	c #898989",
"0.	c #4C4C4C",
"a.	c #010101",
"b.	c #1C1C1C",
"c.	c #F5F5F5",
"d.	c #F6F6F6",
"e.	c #CECECE",
"f.	c #F7F7F7",
"g.	c #F8F8F8",
"h.	c #B3B3B3",
"i.	c #5D5D5D",
"j.	c #959595",
"k.	c #999999",
"l.	c #696969",
"m.	c #7B7B7B",
"n.	c #F9F9F9",
"o.	c #424242",
"p.	c #393939",
"q.	c #131313",
"r.	c #3C3C3C",
"s.	c #454545",
"t.	c #7F7F7F",
"u.	c #555555",
"v.	c #686868",
"w.	c #BFBFBF",
"x.	c #8A8A8A",
"y.	c #505050",
"                                                                ",
"                                                                ",
"                                                                ",
"                                                                ",
"                                                                ",
"                                . + @ # $                       ",
"                  % & * = - % ; > , , ' > + ) % !               ",
"          ~ & * { ] ^ ^ / ( - ( _ + + + + + + ] { , : <         ",
"  [ } . | 1 2 2 3 3 ^ 4 4 ~ 5 6 1 1 1 1 1 1 1 1 1 1 1 . 7 8     ",
"  { . . * / 2 3 3 ^ 4 , , 9 0 . 1 ' ' ' ' ' ' ' ' ' ' @ a a     ",
"  b . * / 2 2 3 ^ 4 , , + c d e ' ] ] ] ] ] ] ] ] ] ] f g f h   ",
"  i / * / 2 3 ^ 4 , , + 1 ' j > ] k k f l ~ ] k k k , m 9 f n   ",
"  9 1 / 2 3 ^ 4 , o p ~ ' + 6 | k | | q r s t u 9 | k v ~ w x y ",
"    _ 2 2 3 ^ 4 , z A B ^ C . | | _ _ D E ' 9 F G H | | k k , I ",
"    5 2 3 ^ 4 , + J K J L M N | _ { / G O { { { P Q _ _ | | > R ",
"    S ^ ^ ^ , , 3 G T $ G x e _ { { I U V > W | X Y { { _ | >   ",
"    Z ] ^ 4 , + S U : k ` = { { > >  .r ..+.@.#.$.%.> > { _ &.  ",
"    *.{ ^ 4 , + a G + k @ =.{ > W W -.F | g ;.+.~ e W > > { #   ",
"      5 4 , + 1 >.,.$ '.).N > W W ^ G *.!.!.!.~.{.N e W > e n   ",
"      ]., , + 1 ^.U /.(._.N > W e :.U <.[.[.[.}.|.N N e W e     ",
"      1.k , 1 ' 2.@.| k ].W W e N '.3.4.~ _ c 5.6.!.N N e b     ",
"      7.{ + 1 ' P 8.| <.5 > W e N %.9.0.t a.U b.j [.!.N e M     ",
"        5 + 1 ' 5.l | = N W e N !.[.c.d.c.C e.N d.c.[.!.!.w     ",
"        ( 1 1 ' =.k | = [.W e N !.[.c.d.f.g.g.f.d.c.[.!.!.      ",
"        h.| 1 ' ] n = ) = j - !.c.c.d.] H i.=.g.d.c.[.!.5       ",
"        j.{ 1 ' ] ] o 4.2 k ].k.x = - l.G m.n.g.d.c.[.!.M       ",
"          b 1 ' _ e ^ w o.Q p.,.  |.q.r.s.< - [.f.c.[.[.w       ",
"          ~ 2 i :.t.u.                        v.*.w.&.{ x.      ",
"            y.                                        v.        ",
"                                                                ",
"                                                                ",
"                                                                "};
